# xmcd
#
# Track frame offsets:
#	150
#	8692
#	29092
#	45965
#	60210
#	79900
#	94445
#	108252
#	121212
#	130820
#	145142
#	169167
#	190342
#	208357
#	226815
#	250602
#	264882
#	277395
#	287910
#	299285
#	327922
#
# Disc length: 4571 seconds
#
# Revision: 1
# Processed by: cddbd v1.5.2PL0 Copyright (c) Steve Scherf et al.
# Submitted via: EasyCDDAExtractor 10.0.6.1
#
DISCID=3411d915
DTITLE=Charlie Brown Jr. - Acústico MTV
DYEAR=2003
DGENRE=Rock and Roll
TTITLE0=Quebra Mar
TTITLE1=O que é da Cada é da Casa (inédita) - Papo Reto
TTITLE2=Zoio de Lula
TTITLE3=Vícios e virtudes (inédita)
TTITLE4=Hoje (particip. Marcelo Nova)
TTITLE5=O Preço
TTITLE6=Tudo pro Alto
TTITLE7=Não Uso Sapato (inédita)
TTITLE8=O Coro vai Come
TTITLE9=Tudo que Ela Gosta de Escutar
TTITLE10=Não é sério (partic. Negra Li)
TTITLE11=Vinheta beat Box II (inédita)/ Como Tudo Deve Ser
TTITLE12=A Banca (Ratatá é bicho solto)
TTITLE13=Samba Makossa (partic. Marcelo D2)
TTITLE14=Quinta-feira
TTITLE15=Só Por uma Noite
TTITLE16=Oba lá Vem Ela
TTITLE17=Tudo Mudar
TTITLE18=Proibida pra Mim
TTITLE19=Charlie Brown Jr.
TTITLE20=Dados
EXTD=
EXTT0=
EXTT1=
EXTT2=
EXTT3=
EXTT4=
EXTT5=
EXTT6=
EXTT7=
EXTT8=
EXTT9=
EXTT10=
EXTT11=
EXTT12=
EXTT13=
EXTT14=
EXTT15=
EXTT16=
EXTT17=
EXTT18=
EXTT19=
EXTT20=
PLAYORDER=
